<mxfile host="Electron" agent="Mozilla/5.0 (Windows NT 10.0; Win64; x64) AppleWebKit/537.36 (KHTML, like Gecko) draw.io/26.0.9 Chrome/128.0.6613.186 Electron/32.2.5 Safari/537.36" version="26.0.9" pages="2">
  <diagram name="Page-1" id="6plBSOpS0Jz09j6BIykL">
    <mxGraphModel dx="777" dy="607" grid="1" gridSize="10" guides="1" tooltips="1" connect="1" arrows="1" fold="1" page="1" pageScale="1" pageWidth="850" pageHeight="1100" math="0" shadow="0">
      <root>
        <mxCell id="0" />
        <mxCell id="1" parent="0" />
        <mxCell id="l8JdB6MDl1ZhQ7gIEwZ--3" style="edgeStyle=orthogonalEdgeStyle;rounded=0;orthogonalLoop=1;jettySize=auto;html=1;endArrow=diamondThin;endFill=0;sketch=1;curveFitting=1;jiggle=2;labelBackgroundColor=none;fontColor=default;startSize=8;endSize=12;" parent="1" source="l8JdB6MDl1ZhQ7gIEwZ--8" target="l8JdB6MDl1ZhQ7gIEwZ--13" edge="1">
          <mxGeometry relative="1" as="geometry">
            <mxPoint x="360" y="420" as="sourcePoint" />
            <mxPoint x="240" y="420" as="targetPoint" />
          </mxGeometry>
        </mxCell>
        <mxCell id="l8JdB6MDl1ZhQ7gIEwZ--6" style="edgeStyle=orthogonalEdgeStyle;rounded=0;sketch=1;hachureGap=4;jiggle=2;curveFitting=1;orthogonalLoop=1;jettySize=auto;html=1;fontFamily=Architects Daughter;fontSource=https%3A%2F%2Ffonts.googleapis.com%2Fcss%3Ffamily%3DArchitects%2BDaughter;fontColor=default;endArrow=block;endFill=0;endSize=8;labelBackgroundColor=none;" parent="1" source="l8JdB6MDl1ZhQ7gIEwZ--4" target="l8JdB6MDl1ZhQ7gIEwZ--8" edge="1">
          <mxGeometry relative="1" as="geometry">
            <mxPoint x="420" y="450" as="targetPoint" />
          </mxGeometry>
        </mxCell>
        <mxCell id="l8JdB6MDl1ZhQ7gIEwZ--4" value="Bluetooth" style="rounded=0;whiteSpace=wrap;html=1;sketch=1;hachureGap=4;jiggle=2;curveFitting=1;fontFamily=Architects Daughter;fontSource=https%3A%2F%2Ffonts.googleapis.com%2Fcss%3Ffamily%3DArchitects%2BDaughter;labelBackgroundColor=none;" parent="1" vertex="1">
          <mxGeometry x="290" y="510" width="120" height="60" as="geometry" />
        </mxCell>
        <mxCell id="l8JdB6MDl1ZhQ7gIEwZ--7" style="edgeStyle=orthogonalEdgeStyle;rounded=0;sketch=1;hachureGap=4;jiggle=2;curveFitting=1;orthogonalLoop=1;jettySize=auto;html=1;fontFamily=Architects Daughter;fontSource=https%3A%2F%2Ffonts.googleapis.com%2Fcss%3Ffamily%3DArchitects%2BDaughter;fontColor=default;endArrow=block;endFill=0;startSize=8;endSize=8;labelBackgroundColor=none;" parent="1" source="l8JdB6MDl1ZhQ7gIEwZ--5" target="l8JdB6MDl1ZhQ7gIEwZ--8" edge="1">
          <mxGeometry relative="1" as="geometry">
            <mxPoint x="420" y="450" as="targetPoint" />
          </mxGeometry>
        </mxCell>
        <mxCell id="l8JdB6MDl1ZhQ7gIEwZ--5" value="Wifi" style="rounded=0;whiteSpace=wrap;html=1;sketch=1;hachureGap=4;jiggle=2;curveFitting=1;fontFamily=Architects Daughter;fontSource=https%3A%2F%2Ffonts.googleapis.com%2Fcss%3Ffamily%3DArchitects%2BDaughter;labelBackgroundColor=none;" parent="1" vertex="1">
          <mxGeometry x="430" y="510" width="120" height="60" as="geometry" />
        </mxCell>
        <mxCell id="l8JdB6MDl1ZhQ7gIEwZ--8" value="Connection" style="swimlane;fontStyle=0;childLayout=stackLayout;horizontal=1;startSize=26;horizontalStack=0;resizeParent=1;resizeParentMax=0;resizeLast=0;collapsible=1;marginBottom=0;whiteSpace=wrap;html=1;sketch=1;hachureGap=4;jiggle=2;curveFitting=1;fontFamily=Architects Daughter;fontSource=https%3A%2F%2Ffonts.googleapis.com%2Fcss%3Ffamily%3DArchitects%2BDaughter;labelBackgroundColor=none;" parent="1" vertex="1">
          <mxGeometry x="350" y="394" width="140" height="52" as="geometry" />
        </mxCell>
        <mxCell id="l8JdB6MDl1ZhQ7gIEwZ--9" value="+ connect(): boolean" style="text;strokeColor=none;fillColor=none;align=left;verticalAlign=top;spacingLeft=4;spacingRight=4;overflow=hidden;rotatable=0;points=[[0,0.5],[1,0.5]];portConstraint=eastwest;whiteSpace=wrap;html=1;fontFamily=Architects Daughter;fontSource=https%3A%2F%2Ffonts.googleapis.com%2Fcss%3Ffamily%3DArchitects%2BDaughter;labelBackgroundColor=none;" parent="l8JdB6MDl1ZhQ7gIEwZ--8" vertex="1">
          <mxGeometry y="26" width="140" height="26" as="geometry" />
        </mxCell>
        <mxCell id="l8JdB6MDl1ZhQ7gIEwZ--13" value="Device" style="swimlane;fontStyle=0;childLayout=stackLayout;horizontal=1;startSize=26;horizontalStack=0;resizeParent=1;resizeParentMax=0;resizeLast=0;collapsible=1;marginBottom=0;whiteSpace=wrap;html=1;sketch=1;hachureGap=4;jiggle=2;curveFitting=1;fontFamily=Architects Daughter;fontSource=https%3A%2F%2Ffonts.googleapis.com%2Fcss%3Ffamily%3DArchitects%2BDaughter;labelBackgroundColor=none;" parent="1" vertex="1">
          <mxGeometry x="140" y="394" width="140" height="52" as="geometry" />
        </mxCell>
        <mxCell id="l8JdB6MDl1ZhQ7gIEwZ--14" value="+ connect(): void" style="text;strokeColor=none;fillColor=none;align=left;verticalAlign=top;spacingLeft=4;spacingRight=4;overflow=hidden;rotatable=0;points=[[0,0.5],[1,0.5]];portConstraint=eastwest;whiteSpace=wrap;html=1;fontFamily=Architects Daughter;fontSource=https%3A%2F%2Ffonts.googleapis.com%2Fcss%3Ffamily%3DArchitects%2BDaughter;labelBackgroundColor=none;" parent="l8JdB6MDl1ZhQ7gIEwZ--13" vertex="1">
          <mxGeometry y="26" width="140" height="26" as="geometry" />
        </mxCell>
        <mxCell id="80LbOxXvXCT7FVGn96Ii-4" value="" style="group;sketch=1;curveFitting=1;jiggle=2;fontSize=11;strokeOpacity=100;fillOpacity=100;opacity=50;" vertex="1" connectable="0" parent="1">
          <mxGeometry x="530" y="450" width="100" height="80" as="geometry" />
        </mxCell>
        <mxCell id="80LbOxXvXCT7FVGn96Ii-5" value="" style="ellipse;whiteSpace=wrap;html=1;hachureGap=4;fontFamily=Architects Daughter;fontSource=https%3A%2F%2Ffonts.googleapis.com%2Fcss%3Ffamily%3DArchitects%2BDaughter;strokeColor=#82b366;fillColor=default;fillStyle=solid;sketch=1;curveFitting=1;jiggle=2;opacity=30;" vertex="1" parent="80LbOxXvXCT7FVGn96Ii-4">
          <mxGeometry width="100" height="80" as="geometry" />
        </mxCell>
        <mxCell id="80LbOxXvXCT7FVGn96Ii-6" value="89% chance of successful connection" style="ellipse;whiteSpace=wrap;html=1;hachureGap=4;fontFamily=Architects Daughter;fontSource=https%3A%2F%2Ffonts.googleapis.com%2Fcss%3Ffamily%3DArchitects%2BDaughter;strokeColor=#82b366;fillColor=#d5e8d4;sketch=1;curveFitting=1;jiggle=2;fontSize=11;opacity=50;" vertex="1" parent="80LbOxXvXCT7FVGn96Ii-4">
          <mxGeometry width="100" height="80" as="geometry" />
        </mxCell>
        <mxCell id="80LbOxXvXCT7FVGn96Ii-7" value="" style="group;sketch=1;curveFitting=1;jiggle=2;fontSize=11;strokeOpacity=100;fillOpacity=100;opacity=30;" vertex="1" connectable="0" parent="1">
          <mxGeometry x="180" y="500" width="100" height="80" as="geometry" />
        </mxCell>
        <mxCell id="80LbOxXvXCT7FVGn96Ii-8" value="" style="ellipse;whiteSpace=wrap;html=1;hachureGap=4;fontFamily=Architects Daughter;fontSource=https%3A%2F%2Ffonts.googleapis.com%2Fcss%3Ffamily%3DArchitects%2BDaughter;strokeColor=#82b366;fillColor=default;fillStyle=solid;sketch=1;curveFitting=1;jiggle=2;opacity=30;" vertex="1" parent="80LbOxXvXCT7FVGn96Ii-7">
          <mxGeometry width="100" height="80" as="geometry" />
        </mxCell>
        <mxCell id="80LbOxXvXCT7FVGn96Ii-9" value="82% chance of successful connection" style="ellipse;whiteSpace=wrap;html=1;hachureGap=4;fontFamily=Architects Daughter;fontSource=https%3A%2F%2Ffonts.googleapis.com%2Fcss%3Ffamily%3DArchitects%2BDaughter;strokeColor=#82b366;fillColor=#d5e8d4;sketch=1;curveFitting=1;jiggle=2;fontSize=11;fillOpacity=100;opacity=50;" vertex="1" parent="80LbOxXvXCT7FVGn96Ii-7">
          <mxGeometry width="100" height="80" as="geometry" />
        </mxCell>
        <mxCell id="CgbpbrcqhxYr4XI05DIw-1" value="" style="verticalLabelPosition=bottom;verticalAlign=top;html=1;shape=mxgraph.basic.star;sketch=1;hachureGap=4;jiggle=2;curveFitting=1;fontFamily=Architects Daughter;fontSource=https%3A%2F%2Ffonts.googleapis.com%2Fcss%3Ffamily%3DArchitects%2BDaughter;fillColor=#fff2cc;strokeColor=#d6b656;rotation=-20;" parent="1" vertex="1">
          <mxGeometry x="250" y="530" width="70" height="60" as="geometry" />
        </mxCell>
        <mxCell id="EwoiDkLtiRS66F9vxQie-1" value="API" style="swimlane;fontStyle=0;childLayout=stackLayout;horizontal=1;startSize=26;horizontalStack=0;resizeParent=1;resizeParentMax=0;resizeLast=0;collapsible=1;marginBottom=0;whiteSpace=wrap;html=1;sketch=1;hachureGap=4;jiggle=2;curveFitting=1;fontFamily=Architects Daughter;fontSource=https%3A%2F%2Ffonts.googleapis.com%2Fcss%3Ffamily%3DArchitects%2BDaughter;labelBackgroundColor=none;" vertex="1" parent="1">
          <mxGeometry x="210" y="300" width="230" height="52" as="geometry" />
        </mxCell>
        <mxCell id="EwoiDkLtiRS66F9vxQie-2" value="+ getAvailableConnections(): string[]" style="text;strokeColor=none;fillColor=none;align=left;verticalAlign=top;spacingLeft=4;spacingRight=4;overflow=hidden;rotatable=0;points=[[0,0.5],[1,0.5]];portConstraint=eastwest;whiteSpace=wrap;html=1;fontFamily=Architects Daughter;fontSource=https%3A%2F%2Ffonts.googleapis.com%2Fcss%3Ffamily%3DArchitects%2BDaughter;labelBackgroundColor=none;" vertex="1" parent="EwoiDkLtiRS66F9vxQie-1">
          <mxGeometry y="26" width="230" height="26" as="geometry" />
        </mxCell>
      </root>
    </mxGraphModel>
  </diagram>
  <diagram id="bfYPY2_5xNruEs83Vb4x" name="Page-2">
    <mxGraphModel dx="1049" dy="820" grid="1" gridSize="10" guides="1" tooltips="1" connect="1" arrows="1" fold="1" page="1" pageScale="1" pageWidth="850" pageHeight="1100" math="0" shadow="0">
      <root>
        <mxCell id="0" />
        <mxCell id="1" parent="0" />
        <mxCell id="MnybgJhgYroqiIBK9Pmh-8" value="" style="rounded=1;whiteSpace=wrap;html=1;arcSize=14;fontColor=#000000;fillColor=none;strokeColor=#666666;hachureGap=4;fontFamily=Architects Daughter;fontSource=https%3A%2F%2Ffonts.googleapis.com%2Fcss%3Ffamily%3DArchitects%2BDaughter;sketch=1;curveFitting=1;jiggle=2;" parent="1" vertex="1">
          <mxGeometry x="80" y="200" width="580" height="270" as="geometry" />
        </mxCell>
        <mxCell id="MnybgJhgYroqiIBK9Pmh-1" value="" style="ellipse;html=1;shape=startState;fillColor=#000000;strokeColor=#666666;hachureGap=4;fontFamily=Architects Daughter;fontSource=https%3A%2F%2Ffonts.googleapis.com%2Fcss%3Ffamily%3DArchitects%2BDaughter;sketch=1;curveFitting=1;jiggle=2;" parent="1" vertex="1">
          <mxGeometry x="110" y="325" width="30" height="30" as="geometry" />
        </mxCell>
        <mxCell id="MnybgJhgYroqiIBK9Pmh-2" value="" style="edgeStyle=orthogonalEdgeStyle;html=1;verticalAlign=bottom;endArrow=open;endSize=8;strokeColor=#666666;rounded=0;hachureGap=4;fontFamily=Architects Daughter;fontSource=https%3A%2F%2Ffonts.googleapis.com%2Fcss%3Ffamily%3DArchitects%2BDaughter;sketch=1;curveFitting=1;jiggle=2;" parent="1" source="MnybgJhgYroqiIBK9Pmh-1" target="MnybgJhgYroqiIBK9Pmh-3" edge="1">
          <mxGeometry relative="1" as="geometry">
            <mxPoint x="210" y="335" as="targetPoint" />
          </mxGeometry>
        </mxCell>
        <mxCell id="MnybgJhgYroqiIBK9Pmh-3" value="Take first connection type" style="rounded=1;whiteSpace=wrap;html=1;arcSize=40;fillColor=#e1d5e7;strokeColor=#9673a6;hachureGap=4;fontFamily=Architects Daughter;fontSource=https%3A%2F%2Ffonts.googleapis.com%2Fcss%3Ffamily%3DArchitects%2BDaughter;sketch=1;curveFitting=1;jiggle=2;" parent="1" vertex="1">
          <mxGeometry x="180" y="320" width="120" height="40" as="geometry" />
        </mxCell>
        <mxCell id="MnybgJhgYroqiIBK9Pmh-4" value="" style="edgeStyle=orthogonalEdgeStyle;html=1;verticalAlign=bottom;endArrow=open;endSize=8;strokeColor=#666666;rounded=0;hachureGap=4;fontFamily=Architects Daughter;fontSource=https%3A%2F%2Ffonts.googleapis.com%2Fcss%3Ffamily%3DArchitects%2BDaughter;sketch=1;curveFitting=1;jiggle=2;" parent="1" source="MnybgJhgYroqiIBK9Pmh-3" target="MnybgJhgYroqiIBK9Pmh-19" edge="1">
          <mxGeometry relative="1" as="geometry">
            <mxPoint x="280" y="420" as="targetPoint" />
          </mxGeometry>
        </mxCell>
        <mxCell id="lZTjzuh1z9UJyakJmFWx-5" value="no" style="edgeStyle=orthogonalEdgeStyle;rounded=0;sketch=1;hachureGap=4;jiggle=2;curveFitting=1;orthogonalLoop=1;jettySize=auto;html=1;fontFamily=Architects Daughter;fontSource=https%3A%2F%2Ffonts.googleapis.com%2Fcss%3Ffamily%3DArchitects%2BDaughter;endArrow=open;endFill=0;strokeColor=#666666;" edge="1" parent="1" source="MnybgJhgYroqiIBK9Pmh-19" target="MnybgJhgYroqiIBK9Pmh-26">
          <mxGeometry x="-0.6" y="14" relative="1" as="geometry">
            <mxPoint as="offset" />
          </mxGeometry>
        </mxCell>
        <mxCell id="MnybgJhgYroqiIBK9Pmh-19" value="is available?" style="rhombus;whiteSpace=wrap;html=1;fillColor=#e1d5e7;strokeColor=#9673a6;hachureGap=4;fontFamily=Architects Daughter;fontSource=https%3A%2F%2Ffonts.googleapis.com%2Fcss%3Ffamily%3DArchitects%2BDaughter;sketch=1;curveFitting=1;jiggle=2;" parent="1" vertex="1">
          <mxGeometry x="340" y="320" width="80" height="40" as="geometry" />
        </mxCell>
        <mxCell id="MnybgJhgYroqiIBK9Pmh-21" value="yes" style="edgeStyle=orthogonalEdgeStyle;html=1;align=left;verticalAlign=top;endArrow=open;endSize=8;strokeColor=#666666;rounded=0;hachureGap=4;fontFamily=Architects Daughter;fontSource=https%3A%2F%2Ffonts.googleapis.com%2Fcss%3Ffamily%3DArchitects%2BDaughter;sketch=1;curveFitting=1;jiggle=2;" parent="1" source="MnybgJhgYroqiIBK9Pmh-19" target="MnybgJhgYroqiIBK9Pmh-32" edge="1">
          <mxGeometry x="0.5" relative="1" as="geometry">
            <mxPoint x="380" y="255" as="targetPoint" />
            <mxPoint as="offset" />
          </mxGeometry>
        </mxCell>
        <mxCell id="MnybgJhgYroqiIBK9Pmh-26" value="is last type?" style="rhombus;whiteSpace=wrap;html=1;fillColor=#e1d5e7;strokeColor=#9673a6;hachureGap=4;fontFamily=Architects Daughter;fontSource=https%3A%2F%2Ffonts.googleapis.com%2Fcss%3Ffamily%3DArchitects%2BDaughter;sketch=1;curveFitting=1;jiggle=2;" parent="1" vertex="1">
          <mxGeometry x="460" y="320" width="80" height="40" as="geometry" />
        </mxCell>
        <mxCell id="MnybgJhgYroqiIBK9Pmh-27" value="no" style="edgeStyle=orthogonalEdgeStyle;html=1;align=left;verticalAlign=bottom;endArrow=open;endSize=8;strokeColor=#666666;rounded=0;hachureGap=4;fontFamily=Architects Daughter;fontSource=https%3A%2F%2Ffonts.googleapis.com%2Fcss%3Ffamily%3DArchitects%2BDaughter;sketch=1;curveFitting=1;jiggle=2;" parent="1" source="MnybgJhgYroqiIBK9Pmh-26" target="MnybgJhgYroqiIBK9Pmh-30" edge="1">
          <mxGeometry x="0.1667" y="4" relative="1" as="geometry">
            <mxPoint x="500" y="400" as="targetPoint" />
            <mxPoint as="offset" />
          </mxGeometry>
        </mxCell>
        <mxCell id="MnybgJhgYroqiIBK9Pmh-28" value="yes" style="edgeStyle=orthogonalEdgeStyle;html=1;align=left;verticalAlign=top;endArrow=open;endSize=8;strokeColor=#666666;rounded=0;hachureGap=4;fontFamily=Architects Daughter;fontSource=https%3A%2F%2Ffonts.googleapis.com%2Fcss%3Ffamily%3DArchitects%2BDaughter;sketch=1;curveFitting=1;jiggle=2;" parent="1" source="MnybgJhgYroqiIBK9Pmh-26" target="MnybgJhgYroqiIBK9Pmh-35" edge="1">
          <mxGeometry x="-0.5" relative="1" as="geometry">
            <mxPoint x="610" y="340" as="targetPoint" />
            <mxPoint as="offset" />
          </mxGeometry>
        </mxCell>
        <mxCell id="MnybgJhgYroqiIBK9Pmh-30" value="Take next connection type" style="rounded=1;whiteSpace=wrap;html=1;arcSize=40;fillColor=#e1d5e7;strokeColor=#9673a6;hachureGap=4;fontFamily=Architects Daughter;fontSource=https%3A%2F%2Ffonts.googleapis.com%2Fcss%3Ffamily%3DArchitects%2BDaughter;sketch=1;curveFitting=1;jiggle=2;" parent="1" vertex="1">
          <mxGeometry x="440" y="396" width="120" height="40" as="geometry" />
        </mxCell>
        <mxCell id="MnybgJhgYroqiIBK9Pmh-32" value="Attempt connection" style="rounded=1;whiteSpace=wrap;html=1;arcSize=40;fillColor=#e1d5e7;strokeColor=#9673a6;hachureGap=4;fontFamily=Architects Daughter;fontSource=https%3A%2F%2Ffonts.googleapis.com%2Fcss%3Ffamily%3DArchitects%2BDaughter;sketch=1;curveFitting=1;jiggle=2;" parent="1" vertex="1">
          <mxGeometry x="320" y="240" width="120" height="40" as="geometry" />
        </mxCell>
        <mxCell id="MnybgJhgYroqiIBK9Pmh-33" value="" style="edgeStyle=orthogonalEdgeStyle;html=1;verticalAlign=bottom;endArrow=open;endSize=8;strokeColor=#666666;rounded=0;hachureGap=4;fontFamily=Architects Daughter;fontSource=https%3A%2F%2Ffonts.googleapis.com%2Fcss%3Ffamily%3DArchitects%2BDaughter;sketch=1;curveFitting=1;jiggle=2;" parent="1" source="MnybgJhgYroqiIBK9Pmh-32" target="MnybgJhgYroqiIBK9Pmh-37" edge="1">
          <mxGeometry relative="1" as="geometry">
            <mxPoint x="310" y="580" as="targetPoint" />
          </mxGeometry>
        </mxCell>
        <mxCell id="MnybgJhgYroqiIBK9Pmh-35" value="" style="ellipse;html=1;shape=endState;fillColor=#000000;strokeColor=#666666;hachureGap=4;fontFamily=Architects Daughter;fontSource=https%3A%2F%2Ffonts.googleapis.com%2Fcss%3Ffamily%3DArchitects%2BDaughter;sketch=1;curveFitting=1;jiggle=2;" parent="1" vertex="1">
          <mxGeometry x="580" y="325" width="30" height="30" as="geometry" />
        </mxCell>
        <mxCell id="lZTjzuh1z9UJyakJmFWx-4" value="no" style="edgeStyle=orthogonalEdgeStyle;rounded=0;sketch=1;hachureGap=4;jiggle=2;curveFitting=1;orthogonalLoop=1;jettySize=auto;html=1;fontFamily=Architects Daughter;fontSource=https%3A%2F%2Ffonts.googleapis.com%2Fcss%3Ffamily%3DArchitects%2BDaughter;fontColor=#666666;endArrow=open;endFill=0;strokeColor=#666666;" edge="1" parent="1" source="MnybgJhgYroqiIBK9Pmh-37" target="MnybgJhgYroqiIBK9Pmh-26">
          <mxGeometry x="-0.6" y="7" relative="1" as="geometry">
            <mxPoint as="offset" />
          </mxGeometry>
        </mxCell>
        <mxCell id="MnybgJhgYroqiIBK9Pmh-37" value="is succesful" style="rhombus;whiteSpace=wrap;html=1;fillColor=#e1d5e7;strokeColor=#9673a6;hachureGap=4;fontFamily=Architects Daughter;fontSource=https%3A%2F%2Ffonts.googleapis.com%2Fcss%3Ffamily%3DArchitects%2BDaughter;sketch=1;curveFitting=1;jiggle=2;" parent="1" vertex="1">
          <mxGeometry x="490" y="240" width="80" height="40" as="geometry" />
        </mxCell>
        <mxCell id="MnybgJhgYroqiIBK9Pmh-39" value="yes" style="edgeStyle=orthogonalEdgeStyle;html=1;align=left;verticalAlign=top;endArrow=open;endSize=8;strokeColor=#666666;rounded=0;hachureGap=4;fontFamily=Architects Daughter;fontSource=https%3A%2F%2Ffonts.googleapis.com%2Fcss%3Ffamily%3DArchitects%2BDaughter;sketch=1;curveFitting=1;jiggle=2;" parent="1" source="MnybgJhgYroqiIBK9Pmh-37" target="MnybgJhgYroqiIBK9Pmh-40" edge="1">
          <mxGeometry x="-0.6082" y="1" relative="1" as="geometry">
            <mxPoint x="620" y="260" as="targetPoint" />
            <mxPoint as="offset" />
          </mxGeometry>
        </mxCell>
        <mxCell id="MnybgJhgYroqiIBK9Pmh-40" value="" style="ellipse;html=1;shape=endState;fillColor=#000000;strokeColor=#666666;hachureGap=4;fontFamily=Architects Daughter;fontSource=https%3A%2F%2Ffonts.googleapis.com%2Fcss%3Ffamily%3DArchitects%2BDaughter;sketch=1;curveFitting=1;jiggle=2;" parent="1" vertex="1">
          <mxGeometry x="610" y="245" width="30" height="30" as="geometry" />
        </mxCell>
        <mxCell id="MnybgJhgYroqiIBK9Pmh-41" value="" style="ellipse;html=1;shape=startState;fillColor=#000000;strokeColor=#666666;hachureGap=4;fontFamily=Architects Daughter;fontSource=https%3A%2F%2Ffonts.googleapis.com%2Fcss%3Ffamily%3DArchitects%2BDaughter;sketch=1;curveFitting=1;jiggle=2;" parent="1" vertex="1">
          <mxGeometry x="20" y="320" width="30" height="30" as="geometry" />
        </mxCell>
        <mxCell id="MnybgJhgYroqiIBK9Pmh-42" value="" style="edgeStyle=orthogonalEdgeStyle;html=1;verticalAlign=bottom;endArrow=open;endSize=8;strokeColor=#666666;rounded=0;hachureGap=4;fontFamily=Architects Daughter;fontSource=https%3A%2F%2Ffonts.googleapis.com%2Fcss%3Ffamily%3DArchitects%2BDaughter;entryX=0;entryY=0.5;entryDx=0;entryDy=0;sketch=1;curveFitting=1;jiggle=2;" parent="1" source="MnybgJhgYroqiIBK9Pmh-41" target="MnybgJhgYroqiIBK9Pmh-8" edge="1">
          <mxGeometry relative="1" as="geometry">
            <mxPoint x="15" y="410" as="targetPoint" />
          </mxGeometry>
        </mxCell>
        <mxCell id="MnybgJhgYroqiIBK9Pmh-43" value="[true]" style="text;align=center;fontStyle=1;verticalAlign=middle;spacingLeft=3;spacingRight=3;strokeColor=none;rotatable=0;points=[[0,0.5],[1,0.5]];portConstraint=eastwest;html=1;fontFamily=Architects Daughter;fontSource=https%3A%2F%2Ffonts.googleapis.com%2Fcss%3Ffamily%3DArchitects%2BDaughter;sketch=1;curveFitting=1;jiggle=2;" parent="1" vertex="1">
          <mxGeometry x="585" y="275" width="80" height="26" as="geometry" />
        </mxCell>
        <mxCell id="MnybgJhgYroqiIBK9Pmh-44" value="[false]" style="text;align=center;fontStyle=1;verticalAlign=middle;spacingLeft=3;spacingRight=3;strokeColor=none;rotatable=0;points=[[0,0.5],[1,0.5]];portConstraint=eastwest;html=1;fontFamily=Architects Daughter;fontSource=https%3A%2F%2Ffonts.googleapis.com%2Fcss%3Ffamily%3DArchitects%2BDaughter;sketch=1;curveFitting=1;jiggle=2;" parent="1" vertex="1">
          <mxGeometry x="570" y="360" width="80" height="26" as="geometry" />
        </mxCell>
        <mxCell id="MnybgJhgYroqiIBK9Pmh-46" value="" style="edgeStyle=orthogonalEdgeStyle;html=1;verticalAlign=bottom;endArrow=open;endSize=8;strokeColor=#666666;rounded=0;hachureGap=4;fontFamily=Architects Daughter;fontSource=https%3A%2F%2Ffonts.googleapis.com%2Fcss%3Ffamily%3DArchitects%2BDaughter;sketch=1;curveFitting=1;jiggle=2;" parent="1" source="MnybgJhgYroqiIBK9Pmh-8" edge="1" target="MnybgJhgYroqiIBK9Pmh-47">
          <mxGeometry relative="1" as="geometry">
            <mxPoint x="710" y="335" as="targetPoint" />
            <mxPoint x="775" y="295" as="sourcePoint" />
          </mxGeometry>
        </mxCell>
        <mxCell id="MnybgJhgYroqiIBK9Pmh-47" value="success" style="rhombus;whiteSpace=wrap;html=1;fillColor=#d5e8d4;strokeColor=#82b366;hachureGap=4;fontFamily=Architects Daughter;fontSource=https%3A%2F%2Ffonts.googleapis.com%2Fcss%3Ffamily%3DArchitects%2BDaughter;sketch=1;curveFitting=1;jiggle=2;" parent="1" vertex="1">
          <mxGeometry x="700" y="316.25" width="60" height="37.5" as="geometry" />
        </mxCell>
        <mxCell id="MnybgJhgYroqiIBK9Pmh-48" value="no" style="edgeStyle=orthogonalEdgeStyle;html=1;align=left;verticalAlign=bottom;endArrow=open;endSize=8;strokeColor=#666666;rounded=0;hachureGap=4;fontFamily=Architects Daughter;fontSource=https%3A%2F%2Ffonts.googleapis.com%2Fcss%3Ffamily%3DArchitects%2BDaughter;sketch=1;curveFitting=1;jiggle=2;" parent="1" source="MnybgJhgYroqiIBK9Pmh-47" target="MnybgJhgYroqiIBK9Pmh-53" edge="1">
          <mxGeometry x="-0.7143" relative="1" as="geometry">
            <mxPoint x="730" y="270" as="targetPoint" />
            <Array as="points">
              <mxPoint x="730" y="265" />
            </Array>
            <mxPoint as="offset" />
            <mxPoint x="710" y="260" as="sourcePoint" />
          </mxGeometry>
        </mxCell>
        <mxCell id="MnybgJhgYroqiIBK9Pmh-49" value="yes" style="edgeStyle=orthogonalEdgeStyle;html=1;align=left;verticalAlign=top;endArrow=open;endSize=8;strokeColor=#666666;rounded=0;hachureGap=4;fontFamily=Architects Daughter;fontSource=https%3A%2F%2Ffonts.googleapis.com%2Fcss%3Ffamily%3DArchitects%2BDaughter;sketch=1;curveFitting=1;jiggle=2;" parent="1" source="MnybgJhgYroqiIBK9Pmh-47" target="MnybgJhgYroqiIBK9Pmh-55" edge="1">
          <mxGeometry x="-1" relative="1" as="geometry">
            <mxPoint x="750" y="415" as="targetPoint" />
          </mxGeometry>
        </mxCell>
        <mxCell id="MnybgJhgYroqiIBK9Pmh-53" value="Throw exception" style="rounded=1;whiteSpace=wrap;html=1;arcSize=40;fillColor=#d5e8d4;strokeColor=#82b366;hachureGap=4;fontFamily=Architects Daughter;fontSource=https%3A%2F%2Ffonts.googleapis.com%2Fcss%3Ffamily%3DArchitects%2BDaughter;sketch=1;curveFitting=1;jiggle=2;" parent="1" vertex="1">
          <mxGeometry x="760" y="245" width="120" height="40" as="geometry" />
        </mxCell>
        <mxCell id="MnybgJhgYroqiIBK9Pmh-54" value="" style="edgeStyle=orthogonalEdgeStyle;html=1;verticalAlign=bottom;endArrow=open;endSize=8;strokeColor=#666666;rounded=0;hachureGap=4;fontFamily=Architects Daughter;fontSource=https%3A%2F%2Ffonts.googleapis.com%2Fcss%3Ffamily%3DArchitects%2BDaughter;sketch=1;curveFitting=1;jiggle=2;" parent="1" source="MnybgJhgYroqiIBK9Pmh-53" target="MnybgJhgYroqiIBK9Pmh-55" edge="1">
          <mxGeometry relative="1" as="geometry">
            <mxPoint x="800" y="260" as="targetPoint" />
          </mxGeometry>
        </mxCell>
        <mxCell id="MnybgJhgYroqiIBK9Pmh-55" value="" style="ellipse;html=1;shape=endState;fillColor=#000000;strokeColor=#666666;hachureGap=4;fontFamily=Architects Daughter;fontSource=https%3A%2F%2Ffonts.googleapis.com%2Fcss%3Ffamily%3DArchitects%2BDaughter;sketch=1;curveFitting=1;jiggle=2;" parent="1" vertex="1">
          <mxGeometry x="805" y="320" width="30" height="30" as="geometry" />
        </mxCell>
        <mxCell id="MnybgJhgYroqiIBK9Pmh-60" value="" style="group;sketch=1;curveFitting=1;jiggle=2;" parent="1" vertex="1" connectable="0">
          <mxGeometry x="170" y="170" width="140" height="100" as="geometry" />
        </mxCell>
        <mxCell id="MnybgJhgYroqiIBK9Pmh-59" value="" style="ellipse;whiteSpace=wrap;html=1;hachureGap=4;fontFamily=Architects Daughter;fontSource=https%3A%2F%2Ffonts.googleapis.com%2Fcss%3Ffamily%3DArchitects%2BDaughter;strokeColor=#b85450;fillColor=#FFFFFF;fillStyle=solid;sketch=1;curveFitting=1;jiggle=2;" parent="MnybgJhgYroqiIBK9Pmh-60" vertex="1">
          <mxGeometry width="140" height="100" as="geometry" />
        </mxCell>
        <mxCell id="MnybgJhgYroqiIBK9Pmh-58" value="note!&amp;nbsp;&lt;div&gt;for the sake of the task, connection success is random&lt;/div&gt;" style="ellipse;whiteSpace=wrap;html=1;hachureGap=4;fontFamily=Architects Daughter;fontSource=https%3A%2F%2Ffonts.googleapis.com%2Fcss%3Ffamily%3DArchitects%2BDaughter;strokeColor=#b85450;fillColor=#f8cecc;sketch=1;curveFitting=1;jiggle=2;" parent="MnybgJhgYroqiIBK9Pmh-60" vertex="1">
          <mxGeometry width="140" height="100" as="geometry" />
        </mxCell>
        <mxCell id="MnybgJhgYroqiIBK9Pmh-31" value="" style="edgeStyle=orthogonalEdgeStyle;html=1;verticalAlign=bottom;endArrow=open;endSize=8;strokeColor=#666666;rounded=0;hachureGap=4;fontFamily=Architects Daughter;fontSource=https%3A%2F%2Ffonts.googleapis.com%2Fcss%3Ffamily%3DArchitects%2BDaughter;sketch=1;curveFitting=1;jiggle=2;" parent="1" source="MnybgJhgYroqiIBK9Pmh-30" target="MnybgJhgYroqiIBK9Pmh-19" edge="1">
          <mxGeometry relative="1" as="geometry">
            <mxPoint x="440" y="530" as="targetPoint" />
          </mxGeometry>
        </mxCell>
      </root>
    </mxGraphModel>
  </diagram>
</mxfile>
